<svg xmlns="http://www.w3.org/2000/svg" xmlns:xlink="http://www.w3.org/1999/xlink" id="_レイヤー_1" data-name="レイヤー_1" version="1.1" viewBox="0 0 840 1328"><defs><style>.st0,.st1{fill:none}.st2{fill:#ceb372}.st3{fill:url(#_新規パターンスウォッチ_1)}.st1{stroke:#1c1917;stroke-width:9.6px}.st4{fill:url(#_新規パターンスウォッチ_2);fill-rule:evenodd}</style><pattern id="_新規パターンスウォッチ_1" width="72" height="72" x="0" y="0" data-name="新規パターンスウォッチ 1" patternTransform="translate(1856.63 1768.36) scale(1.23)" patternUnits="userSpaceOnUse" viewBox="0 0 72 72"><g><rect width="72" height="72" class="st0"/><g><line x1="71.75" x2="144.25" y1="66" y2="66" class="st1"/><line x1="71.75" x2="144.25" y1="42" y2="42" class="st1"/><line x1="71.75" x2="144.25" y1="18" y2="18" class="st1"/><line x1="71.75" x2="144.25" y1="54" y2="54" class="st1"/><line x1="71.75" x2="144.25" y1="30" y2="30" class="st1"/><line x1="71.75" x2="144.25" y1="6" y2="6" class="st1"/></g><g><line x1="-.25" x2="72.25" y1="66" y2="66" class="st1"/><line x1="-.25" x2="72.25" y1="42" y2="42" class="st1"/><line x1="-.25" x2="72.25" y1="18" y2="18" class="st1"/><line x1="-.25" x2="72.25" y1="54" y2="54" class="st1"/><line x1="-.25" x2="72.25" y1="30" y2="30" class="st1"/><line x1="-.25" x2="72.25" y1="6" y2="6" class="st1"/></g><g><line x1="-72.25" x2=".25" y1="66" y2="66" class="st1"/><line x1="-72.25" x2=".25" y1="42" y2="42" class="st1"/><line x1="-72.25" x2=".25" y1="18" y2="18" class="st1"/><line x1="-72.25" x2=".25" y1="54" y2="54" class="st1"/><line x1="-72.25" x2=".25" y1="30" y2="30" class="st1"/><line x1="-72.25" x2=".25" y1="6" y2="6" class="st1"/></g></g></pattern><pattern id="_新規パターンスウォッチ_2" width="48" height="48" x="0" y="0" data-name="新規パターンスウォッチ 2" patternTransform="translate(-4302.12 -11406.05) rotate(-45) scale(1 -1)" patternUnits="userSpaceOnUse" viewBox="0 0 48 48"><g><rect width="48" height="48" class="st0"/><g><rect width="48" height="48" class="st0"/><g><path d="M24-2.4c1.32,0,2.4,1.07,2.4,2.4s-1.08,2.4-2.4,2.4-2.4-1.08-2.4-2.4,1.07-2.4,2.4-2.4Z" class="st2"/><path d="M48-2.4c1.32,0,2.4,1.07,2.4,2.4s-1.08,2.4-2.4,2.4-2.4-1.08-2.4-2.4,1.07-2.4,2.4-2.4Z" class="st2"/><path d="M24,21.6c1.32,0,2.4,1.07,2.4,2.4s-1.08,2.4-2.4,2.4-2.4-1.08-2.4-2.4,1.07-2.4,2.4-2.4Z" class="st2"/><path d="M48,21.6c1.32,0,2.4,1.07,2.4,2.4s-1.08,2.4-2.4,2.4-2.4-1.08-2.4-2.4,1.07-2.4,2.4-2.4Z" class="st2"/><path d="M36,9.6c1.32,0,2.4,1.07,2.4,2.4s-1.08,2.4-2.4,2.4-2.4-1.08-2.4-2.4,1.07-2.4,2.4-2.4Z" class="st2"/><path d="M12,9.6c1.32,0,2.4,1.07,2.4,2.4s-1.08,2.4-2.4,2.4-2.4-1.08-2.4-2.4,1.07-2.4,2.4-2.4Z" class="st2"/><path d="M36,33.6c1.32,0,2.4,1.07,2.4,2.4s-1.08,2.4-2.4,2.4-2.4-1.08-2.4-2.4,1.07-2.4,2.4-2.4Z" class="st2"/><path d="M12,33.6c1.32,0,2.4,1.07,2.4,2.4s-1.08,2.4-2.4,2.4-2.4-1.08-2.4-2.4,1.07-2.4,2.4-2.4Z" class="st2"/></g><g><path d="M0-2.4c1.32,0,2.4,1.07,2.4,2.4S1.32,2.4,0,2.4-2.4,1.32-2.4,0-1.33-2.4,0-2.4Z" class="st2"/><path d="M0,21.6c1.32,0,2.4,1.07,2.4,2.4s-1.08,2.4-2.4,2.4-2.4-1.08-2.4-2.4,1.07-2.4,2.4-2.4Z" class="st2"/></g><g><path d="M24,45.6c1.32,0,2.4,1.07,2.4,2.4s-1.08,2.4-2.4,2.4-2.4-1.08-2.4-2.4,1.07-2.4,2.4-2.4Z" class="st2"/><path d="M48,45.6c1.32,0,2.4,1.07,2.4,2.4s-1.08,2.4-2.4,2.4-2.4-1.08-2.4-2.4,1.07-2.4,2.4-2.4Z" class="st2"/></g><path d="M0,45.6c1.32,0,2.4,1.07,2.4,2.4s-1.08,2.4-2.4,2.4-2.4-1.08-2.4-2.4,1.07-2.4,2.4-2.4Z" class="st2"/></g></g></pattern></defs><circle id="Oval" cx="315.59" cy="281.93" r="281.93" class="st3"/><path id="Path-Copy-3" d="M819.47,1145.63c15.04-32.82,30.51-81.43,10.46-122.3-14.97-30.52-37.12-58.8-136.19-81.67-170.34-39.33-245.16-89.55-142.3-268.36,102.86-178.81-1.12-376.23-182.46-376.23-54.92,0-95.68,12.18-127.32,32.55-61.52,39.62-101.35,102.19-135.19,222.36-12.97,46.06-12.16,48.05-43.23,153.08-16.86,56.99-31.89,103.57-42.27,134.91-14.27,54.08-56.88,241.87,45.65,370.14,147.43,184.45,504.87,133.09,695.8-13.31,25.25-19.36,44.33-37.88,57.03-51.19Z" class="st4"/></svg>